<svg width="3679" height="447" viewBox="0 0 3679 447" fill="none" xmlns="http://www.w3.org/2000/svg">
<path d="M81.1138 247.95H207.149C240.843 247.95 288.887 268.549 288.887 307.872C288.887 349.068 240.843 360.306 207.149 360.306H81.1138V247.95ZM81.1138 75.0457H207.149C259.562 75.0457 275.783 108.752 275.783 128.728C275.783 153.694 258.939 175.543 207.149 175.543H81.1138V75.0457ZM207.149 0.14209C137.892 0.14209 68.634 0.14209 0 0.14209V437.08C69.2576 437.08 137.892 437.08 207.149 437.08C297.623 437.08 370.624 405.873 370.624 308.497C370.624 281.032 351.907 226.726 300.743 211.121C341.3 193.02 357.521 160.561 357.521 126.854C357.521 38.8422 293.256 0.14209 207.149 0.14209Z" fill="white"/>
<path d="M422.812 129.373V437.103H498.933V274.812C498.933 218.01 535.746 196.787 575.677 196.787C600.637 196.787 614.987 203.654 630.585 216.762L664.904 150.597C648.057 133.743 617.484 121.258 585.661 121.258C554.464 121.258 522.643 126.876 498.933 164.954L493.316 129.373H422.812Z" fill="white"/>
<path d="M998.474 310.369C1010.33 183.657 946.063 119.988 843.112 119.988C743.281 119.988 679.638 187.402 679.638 281.033C679.638 379.657 742.658 445.197 848.729 445.197C895.523 445.197 948.56 428.969 981.004 395.262L932.337 347.198C914.866 365.3 878.053 375.912 849.976 375.912C796.315 375.912 763.248 348.446 758.255 310.369H998.474ZM759.502 247.326C770.735 207.377 804.428 187.402 845.609 187.402C889.283 187.402 920.48 207.377 925.473 247.326H759.502Z" fill="white"/>
<path d="M1298.58 171.804C1281.1 141.219 1241.79 121.869 1200.62 121.869C1110.76 121.244 1040.25 176.8 1040.25 282.913C1040.25 390.898 1107.64 447.077 1198.75 446.452C1233.06 445.829 1281.1 428.35 1298.58 392.147L1302.32 437.088H1374.07V129.359H1301.07L1298.58 171.804ZM1207.47 189.906C1327.26 189.906 1327.26 376.542 1207.47 376.542C1156.92 376.542 1116.37 341.586 1116.37 282.913C1116.37 224.238 1156.92 189.906 1207.47 189.906Z" fill="white"/>
<path d="M1456.34 50.7031V129.977H1398.93V195.517H1456.34V328.471C1456.34 405.248 1500.01 443.325 1566.77 440.828C1589.87 440.203 1607.97 436.458 1629.8 427.72L1608.6 362.803C1597.35 368.422 1583.63 372.166 1571.76 372.166C1548.07 372.166 1531.83 357.81 1531.83 328.471V195.517H1617.33V129.977H1532.46V42.5879L1456.34 50.7031Z" fill="white"/>
<path d="M1674.34 0.14209V437.08H1750.45V279.783C1750.45 233.593 1781.65 195.516 1826.59 195.516C1867.15 195.516 1896.48 219.237 1896.48 275.413V437.08H1972.59V274.79C1972.59 184.281 1933.91 124.983 1846.55 124.983C1811.61 124.983 1777.91 135.592 1750.45 171.173V0.14209H1674.34Z" fill="white"/>
<path d="M2233.3 128.75L2166.56 360.328L2096.03 128.75H2011.18L2119.12 438.354H2207.73L2239.55 347.22L2266.99 244.225L2294.45 347.22L2326.27 438.354H2414.88L2522.2 128.75H2437.95L2367.45 360.328L2300.06 128.75H2233.3Z" fill="white"/>
<path d="M2586.51 129.373V437.103H2662.63V274.812C2662.63 218.01 2699.44 196.787 2739.37 196.787C2764.33 196.787 2778.67 203.654 2794.28 216.762L2828.6 150.597C2811.74 133.743 2781.17 121.258 2749.34 121.258C2718.14 121.258 2686.35 126.876 2662.63 164.954L2657.02 129.373H2586.51Z" fill="white"/>
<path d="M2855.19 0.795898V437.109H2931.3V297.914L3051.73 437.109H3143.44V431.493L3000.56 274.193L3125.98 133.75V129.379H3034.88L2931.3 252.972V0.795898H2855.19Z" fill="white"/>
<path d="M3549.44 436.21H3205.89V372.22H3549.44C3551.65 372.22 3553.85 372.1 3556.06 371.864C3558.2 371.626 3560.35 371.331 3562.44 370.915C3564.52 370.501 3566.55 369.968 3568.58 369.374C3570.54 368.783 3572.57 368.011 3574.48 367.242C3576.39 366.47 3578.29 365.523 3580.08 364.576C3581.87 363.569 3583.66 362.502 3585.39 361.377C3587.12 360.25 3588.78 359.007 3590.33 357.702C3591.94 356.399 3593.43 355.036 3594.93 353.555C3596.36 352.133 3597.79 350.592 3599.1 348.993C3600.41 347.393 3601.66 345.734 3602.79 344.075C3603.93 342.357 3605.06 340.581 3606.01 338.802C3607.03 337.023 3607.92 335.127 3608.7 333.233C3609.53 331.336 3610.25 329.382 3610.84 327.365C3611.44 325.351 3611.98 323.337 3612.39 321.262C3612.81 319.19 3613.17 317.056 3613.35 314.924C3613.58 312.732 3613.7 310.54 3613.7 308.347C3613.7 306.153 3613.58 303.963 3613.35 301.771C3613.11 299.637 3612.81 297.505 3612.39 295.43C3611.98 293.356 3611.44 291.342 3610.78 289.327C3610.19 287.371 3609.41 285.356 3608.64 283.46C3607.86 281.566 3606.91 279.669 3605.95 277.891C3605 276.114 3603.87 274.336 3602.74 272.617C3601.6 270.901 3600.35 269.24 3599.04 267.699C3597.73 266.101 3596.36 264.62 3594.87 263.137C3593.43 261.717 3591.88 260.294 3590.28 258.991C3588.67 257.688 3587 256.443 3585.33 255.318C3583.6 254.191 3581.81 253.066 3580.02 252.119C3578.17 251.109 3576.33 250.222 3574.42 249.451C3572.51 248.621 3570.54 247.91 3568.52 247.319C3566.49 246.727 3564.46 246.191 3562.38 245.778C3560.29 245.362 3558.14 245.006 3556 244.831C3551.65 244.415 3547.12 244.415 3542.76 244.831C3540.62 245.066 3538.47 245.362 3536.39 245.778C3534.3 246.191 3532.27 246.727 3530.25 247.376C3528.28 247.97 3526.31 248.739 3524.34 249.511C3522.44 250.34 3520.53 251.229 3518.74 252.176C3516.95 253.126 3515.16 254.251 3513.44 255.378C3511.71 256.503 3510.04 257.746 3508.49 259.051C3506.88 260.354 3505.39 261.716 3503.9 263.197C3502.47 264.62 3501.03 266.161 3499.72 267.759C3498.41 269.36 3497.16 271.019 3496.03 272.677C3494.89 274.396 3493.76 276.174 3492.81 277.951C3491.8 279.787 3490.9 281.624 3490.12 283.52C3489.29 285.417 3488.57 287.373 3487.98 289.387L3426.52 270.367C3427.77 266.396 3429.2 262.428 3430.87 258.575C3432.48 254.784 3434.33 250.991 3436.29 247.376C3438.26 243.764 3440.41 240.209 3442.73 236.831C3445 233.454 3447.5 230.135 3450.12 226.996C3452.75 223.854 3455.55 220.833 3458.41 217.929C3461.33 215.028 3464.37 212.242 3467.53 209.694C3470.69 207.089 3474.03 204.598 3477.43 202.346C3480.83 200.036 3484.4 197.902 3488.04 195.948C3491.67 193.993 3495.49 192.157 3499.31 190.556C3503.18 188.955 3507.17 187.475 3511.17 186.23C3515.22 184.987 3519.4 183.92 3523.51 183.09C3527.74 182.261 3532.03 181.61 3536.27 181.136C3544.91 180.247 3553.85 180.247 3562.5 181.136C3566.79 181.55 3571.08 182.201 3575.25 183.09C3579.43 183.92 3583.54 184.987 3587.59 186.23C3591.59 187.475 3595.58 188.898 3599.46 190.556C3603.27 192.157 3607.09 193.993 3610.72 195.948C3614.36 197.902 3617.94 200.036 3621.33 202.346C3624.73 204.658 3628.07 207.089 3631.23 209.694C3634.39 212.302 3637.43 215.028 3640.35 217.929C3643.21 220.775 3646.01 223.854 3648.64 226.996C3651.26 230.135 3653.76 233.454 3656.03 236.831C3658.35 240.209 3660.5 243.764 3662.47 247.376C3664.44 250.991 3666.28 254.784 3667.89 258.575C3669.5 262.428 3670.99 266.396 3672.24 270.367C3673.5 274.396 3674.57 278.545 3675.4 282.631C3676.24 286.779 3676.89 291.104 3677.37 295.312C3677.79 299.637 3678.03 304.021 3678.03 308.347C3678.03 312.672 3677.79 317.056 3677.37 321.383C3676.95 325.649 3676.3 329.913 3675.4 334.122C3674.57 338.268 3673.5 342.357 3672.24 346.385C3670.99 350.356 3669.56 354.325 3667.89 358.175C3666.28 361.968 3664.44 365.761 3662.47 369.374C3660.5 372.989 3658.35 376.544 3656.03 379.921C3653.71 383.298 3651.26 386.618 3648.64 389.757C3646.01 392.896 3643.21 395.978 3640.35 398.824C3637.49 401.667 3634.39 404.451 3631.23 407.059C3628.07 409.667 3624.73 412.154 3621.33 414.406C3617.94 416.716 3614.36 418.848 3610.72 420.805C3607.09 422.759 3603.27 424.596 3599.46 426.196C3595.58 427.797 3591.59 429.278 3587.59 430.521C3583.54 431.766 3579.37 432.833 3575.25 433.662C3571.08 434.491 3566.73 435.143 3562.5 435.619C3558.26 435.972 3553.85 436.21 3549.44 436.21Z" fill="white"/>
<path d="M3321.06 259.162H3205.35V195.201H3321.06C3323.24 195.201 3325.43 195.084 3327.61 194.846C3329.74 194.61 3331.87 194.313 3333.93 193.899C3336 193.484 3338.01 192.95 3340.02 192.359C3341.97 191.766 3343.97 190.997 3345.87 190.226C3347.75 189.397 3349.64 188.51 3351.42 187.561C3353.19 186.555 3354.96 185.49 3356.67 184.364C3358.38 183.239 3360.04 181.995 3361.58 180.692C3363.17 179.388 3364.65 178.026 3366.12 176.546C3367.54 175.123 3368.96 173.586 3370.26 171.986C3371.56 170.388 3372.8 168.728 3373.92 167.07C3375.04 165.352 3376.16 163.577 3377.11 161.799C3378.11 159.963 3379 158.128 3379.77 156.232C3380.59 154.336 3381.3 152.383 3381.89 150.37C3382.48 148.357 3383.02 146.343 3383.43 144.27C3383.84 142.196 3384.2 140.065 3384.37 137.932C3384.61 135.741 3384.73 133.55 3384.73 131.358C3384.73 129.167 3384.61 126.976 3384.37 124.785C3384.14 122.652 3383.84 120.521 3383.43 118.447C3383.02 116.374 3382.48 114.36 3381.89 112.347C3381.3 110.394 3380.53 108.381 3379.77 106.485C3379 104.589 3378.05 102.694 3377.11 100.918C3376.1 99.1403 3375.04 97.3648 3373.92 95.6469C3372.8 93.9291 3371.56 92.2714 3370.26 90.7313C3368.96 89.1312 3367.6 87.6513 3366.12 86.1713C3364.7 84.749 3363.17 83.3291 3361.58 82.0245C3359.98 80.7223 3358.33 79.4778 3356.67 78.3534C3354.96 77.229 3353.19 76.1022 3351.42 75.1556C3349.59 74.1489 3347.75 73.26 3345.87 72.4912C3343.97 71.6623 3342.02 70.9511 3340.02 70.3577C3338.01 69.7066 3336 69.2333 3333.93 68.76C3331.87 68.3444 3329.74 67.9888 3327.61 67.811C3323.3 67.3977 3318.81 67.3977 3314.5 67.811C3312.38 68.0488 3310.25 68.3444 3308.18 68.76C3306.12 69.1732 3304.11 69.7066 3302.1 70.3C3300.15 70.8911 3298.14 71.6623 3296.25 72.4311C3294.36 73.26 3292.47 74.1489 3290.7 75.0955C3288.93 76.0445 3287.16 77.1689 3285.44 78.2933C3283.73 79.4201 3282.08 80.6647 3280.54 81.9668C3278.95 83.269 3277.47 84.6312 3275.99 86.1112C3274.58 87.5335 3273.16 89.0736 3271.86 90.6713C3270.56 92.2714 3269.32 93.9292 3268.2 95.5869C3267.08 97.3047 3265.95 99.0826 3265.01 100.858C3264 102.694 3263.12 104.532 3262.35 106.425C3261.52 108.32 3260.81 110.274 3260.23 112.289L3199.33 93.278C3200.57 89.309 3201.99 85.3424 3203.64 81.4935C3205.24 77.7023 3207.07 73.9111 3209.02 70.3C3210.97 66.6866 3213.09 63.1332 3215.4 59.7576C3217.7 56.3821 3220.12 53.0641 3222.72 49.9264C3225.32 46.7887 3228.04 43.7662 3230.93 40.864C3233.82 37.9617 3236.84 35.2396 3239.97 32.6328C3243.1 30.026 3246.4 27.5394 3249.77 25.2906C3253.14 22.9794 3256.68 20.8483 3260.28 18.8926C3263.89 16.9394 3267.67 15.1038 3271.45 13.5037C3275.28 11.9036 3279.24 10.4236 3283.2 9.1815C3287.22 7.93698 3291.35 6.87024 3295.42 6.04136C3299.56 5.21248 3303.87 4.5614 3308.06 4.08809C3316.63 3.19915 3325.49 3.19915 3334.05 4.08809C3338.3 4.50133 3342.56 5.15242 3346.69 6.04136C3350.82 6.87024 3354.9 7.93698 3358.92 9.1815C3362.87 10.4236 3366.83 11.8459 3370.67 13.5037C3374.45 15.1038 3378.23 16.9394 3381.83 18.8926C3385.44 20.8483 3388.98 22.9794 3392.35 25.2906C3395.71 27.5995 3399.02 30.026 3402.15 32.6328C3405.28 35.2396 3408.35 38.0217 3411.19 40.864C3414.02 43.7086 3416.8 46.7887 3419.4 49.9264C3422 53.0641 3424.48 56.3821 3426.72 59.7576C3429.02 63.1332 3431.15 66.6866 3433.1 70.3C3435.05 73.9111 3436.88 77.7023 3438.47 81.4935C3440.07 85.3424 3441.54 89.309 3442.79 93.278C3444.02 97.3047 3445.09 101.452 3445.91 105.538C3446.74 109.683 3447.39 114.005 3447.86 118.212C3448.28 122.534 3448.51 126.916 3448.51 131.241C3448.51 135.563 3448.28 139.945 3447.86 144.27C3447.45 148.534 3446.8 152.796 3445.91 157.003C3445.09 161.148 3444.02 165.234 3442.79 169.261C3441.54 173.23 3440.13 177.197 3438.47 181.048C3436.88 184.837 3435.05 188.628 3433.1 192.242C3431.15 195.853 3429.02 199.406 3426.72 202.782C3424.42 206.157 3422 209.475 3419.4 212.613C3416.8 215.753 3414.02 218.831 3411.19 221.675C3408.29 224.577 3405.28 227.302 3402.15 229.906C3399.02 232.513 3395.71 235 3392.35 237.251C3388.98 239.56 3385.44 241.693 3381.83 243.647C3378.23 245.6 3374.45 247.435 3370.67 249.036C3366.83 250.636 3362.87 252.116 3358.92 253.36C3354.9 254.602 3350.77 255.669 3346.69 256.498C3342.5 257.327 3338.25 257.978 3334.05 258.451C3329.8 258.927 3325.43 259.162 3321.06 259.162Z" fill="white"/>
</svg>
